# xmcd CD database file
#
# Track frame offsets:
#	150
#	15780
#	37580
#	50297
#
# Disc length: 855 seconds
#
# Revision: 2
# Processed by: cddbd v1.5.2PL0 Copyright (c) Steve Scherf et al.
# Submitted via: CDex 1.79
#
DISCID=18035504
DTITLE=John Travolta and Olivia Newton-John - Your the one that I want [Martian Remix]
DYEAR=1900
DGENRE=Blues
TTITLE0=John Travolta and Olivia Newton-John - You're the one that I want [Martian Remix]
TTITLE1=Grease Megamix [LP Version]
TTITLE2=John Travolta and Olivia Newton-John - You're the one that I want [Original Version]
TTITLE3=Olivia Newton John - Hopelessly devoted to you
EXTD=
EXTT0=
EXTT1=a. You're the one that I want\nb. Greased Lightnin'\nc. Summer Nights\
EXTT2=
EXTT3=
PLAYORDER=
